<?xml version="1.0" encoding="utf-8"?>
<!-- Generator: Adobe Illustrator 23.0.4, SVG Export Plug-In . SVG Version: 6.00 Build 0)  -->
<svg version="1.1" id="Layer_1" xmlns="http://www.w3.org/2000/svg" xmlns:xlink="http://www.w3.org/1999/xlink" x="0px" y="0px"
	 viewBox="0 0 612 612" style="enable-background:new 0 0 612 612;" xml:space="preserve">
<style type="text/css">
	.st0{fill:#9666FF;}
	.st1{fill:#FFB81E;}
	.st2{fill:#A6C4FF;}
	.st3{fill:#3E1E69;}
	.st4{fill:#FF814B;}
	.st5{fill:#1D0A3A;}
	.st6{fill:#030047;}
	.st7{fill:#FFFFFF;}
</style>
<g>
	<path class="st0" d="M350.36,131.58c0,0,29.71-3.75,30.68,35.28c0.67,27.25,43.34,41.61,13.92,74.87
		c-24.6,27.82-89.41,7.33-94.95-22.83c-4.61-25.11,10.16-35.88,18.03-40.58C325.92,173.61,322.78,135.74,350.36,131.58z"/>
	<path class="st1" d="M211.15,181.86c0,0-48.56,1.17-68.92,62.92l2.71,22.9l18.43,8.81l53.51-6.63L211.15,181.86z"/>
	<path class="st1" d="M214.08,181.86c0,0,40.78,1.17,57.88,62.92l-2.28,22.9l-15.48,8.81l-44.94-6.63L214.08,181.86z"/>
	<path class="st2" d="M281.63,200.73c0,0,28.75-12.49,67.35-15.01c38.6-2.51,56.39,42.83,59.5,69.26l-43.19,3.55l-82.25-46.16
		L281.63,200.73z"/>
	<ellipse class="st3" cx="303.55" cy="485.59" rx="226.21" ry="3.39"/>
	<path class="st2" d="M413.42,258.83c-0.01,0-0.02,0-0.03-0.01c-0.22-0.04-0.47-0.13-0.72-0.21l0.07-0.08L413.42,258.83z"/>
	<path class="st4" d="M291.46,463.18l4.52-11.5l34.44,0.12l-5.58,33.79l-55.19-0.21C269.64,485.37,267.88,463.59,291.46,463.18"/>
	<path class="st5" d="M287.81,477.13c-0.38,0-0.74-0.21-0.91-0.58c-3.24-6.98-10.76-10.79-10.84-10.83
		c-0.49-0.25-0.7-0.85-0.45-1.34c0.25-0.49,0.85-0.7,1.34-0.45c0.33,0.17,8.23,4.17,11.76,11.78c0.23,0.5,0.01,1.1-0.49,1.33
		C288.09,477.1,287.95,477.13,287.81,477.13z"/>
	<path class="st4" d="M406.28,485.22h-58.47v-31.9h33.64v10.86C406.47,464.66,406.28,485.22,406.28,485.22"/>
	<path class="st5" d="M386.32,477.43c-0.13,0-0.27-0.03-0.4-0.08c-0.51-0.22-0.74-0.81-0.51-1.32c3.17-7.22,11.26-10.98,11.6-11.14
		c0.5-0.23,1.09-0.01,1.32,0.49c0.23,0.5,0.01,1.1-0.49,1.33c-0.08,0.04-7.74,3.62-10.6,10.12
		C387.08,477.21,386.71,477.43,386.32,477.43z"/>
	<path class="st6" d="M317.08,283.22c0,0-21.78,99.08-41.39,170.83l60.39,3.32c0,0,2.45-14.95,11.73-68.39l-2.34,68.39l55.89-2.78
		c0,0-6.66-132.66-13.64-173.11L317.08,283.22z"/>
	<path class="st7" d="M349.2,385.15c-0.05,0-0.1,0-0.16-0.01c-0.55-0.08-0.92-0.6-0.83-1.14c0.08-0.51,7.89-50.87,7.89-74.58
		c0-0.55,0.45-1,1-1c0.55,0,1,0.45,1,1c0,23.87-7.84,74.38-7.92,74.89C350.11,384.8,349.68,385.15,349.2,385.15z"/>
	<path class="st1" d="M369.71,161.02c-0.33,1.64-0.84,3.2-1.51,4.65c-3.99,8.71-13.57,13.86-23.37,11.89
		c-8.28-1.66-14.45-7.95-16.36-15.63c-0.74-2.93-0.84-6.08-0.21-9.24c2.3-11.43,13.44-18.83,24.88-16.53
		C364.59,138.46,372,149.59,369.71,161.02"/>
	<path class="st5" d="M334.67,167.28c-0.2,0-0.41-0.02-0.62-0.07c-0.98-0.24-1.71-0.99-2.19-2.25c-0.2-0.52,0.06-1.09,0.58-1.29
		c0.51-0.2,1.09,0.06,1.29,0.58c0.13,0.34,0.4,0.92,0.79,1.02c0.42,0.1,1.04-0.28,1.27-0.49c0.42-0.36,1.05-0.32,1.41,0.09
		c0.36,0.41,0.33,1.04-0.08,1.41C336.99,166.38,335.94,167.28,334.67,167.28z"/>
	<path class="st0" d="M325.64,158.33c0.17,1.87,8.51-0.3,12.61-6.15c2.15,12.8,21.75,19.49,32.79,10.65
		c2.56-2.05,2.73-6.91,2.4-10.51c-1.21-13.05-13.75-22.19-26.65-20.56C333.89,133.38,324.42,145.28,325.64,158.33"/>
	<path class="st2" d="M392.65,300.94h-81.31v-74.69c0-22.45,18.2-40.66,40.66-40.66l0,0c22.45,0,40.66,18.2,40.66,40.66V300.94z"/>
	<g>
		<path class="st5" d="M493.32,155.9h-15.07v7.48c-15.38,15.91-26.28,55.45-26.28,101.71c0,46.27,10.89,85.81,26.28,101.71v7.48
			h15.07c22.83,0,41.34-48.89,41.34-109.19C534.66,204.79,516.15,155.9,493.32,155.9z"/>
		<g>
			<ellipse class="st7" cx="478.25" cy="265.09" rx="41.34" ry="109.19"/>
			<path class="st5" d="M478.25,375.29c-11.49,0-22.2-11.59-30.17-32.63c-7.85-20.73-12.17-48.28-12.17-77.57
				c0-29.29,4.32-56.83,12.17-77.57c7.97-21.04,18.68-32.63,30.17-32.63c11.49,0,22.2,11.59,30.17,32.63
				c7.85,20.73,12.17,48.28,12.17,77.57c0,29.28-4.32,56.83-12.17,77.57C500.46,363.7,489.74,375.29,478.25,375.29z M478.25,156.9
				c-22.24,0-40.34,48.54-40.34,108.19c0,59.66,18.1,108.19,40.34,108.19c22.24,0,40.34-48.54,40.34-108.19
				C518.59,205.44,500.5,156.9,478.25,156.9z"/>
		</g>
		<path class="st5" d="M477.3,352.87c-9.22,0-17.8-9.26-24.17-26.06c-6.25-16.5-9.69-38.42-9.69-61.72c0-23.3,3.44-45.22,9.69-61.72
			c6.36-16.81,14.95-26.06,24.17-26.06c9.22,0,17.8,9.26,24.17,26.06c6.25,16.5,9.69,38.42,9.69,61.72c0,23.3-3.44,45.21-9.69,61.72
			C495.1,343.62,486.52,352.87,477.3,352.87z M477.3,179.31c-17.56,0-31.85,38.48-31.85,85.78c0,47.3,14.29,85.78,31.85,85.78
			c17.56,0,31.85-38.48,31.85-85.78C509.15,217.79,494.86,179.31,477.3,179.31z"/>
		<path class="st5" d="M476.35,330.46c-14.23,0-25.37-28.71-25.37-65.36c0-36.65,11.14-65.36,25.37-65.36
			c14.23,0,25.37,28.71,25.37,65.36C501.71,301.75,490.57,330.46,476.35,330.46z M476.35,201.73c-12.89,0-23.37,28.42-23.37,63.36
			c0,34.94,10.48,63.36,23.37,63.36c12.89,0,23.37-28.42,23.37-63.36C499.71,230.16,489.23,201.73,476.35,201.73z"/>
		<path class="st5" d="M475.39,308.04c-9.47,0-16.88-18.86-16.88-42.95c0-24.08,7.42-42.95,16.88-42.95
			c9.47,0,16.88,18.86,16.88,42.95C492.27,289.18,484.86,308.04,475.39,308.04z M475.39,224.15c-8.07,0-14.88,18.75-14.88,40.95
			c0,22.2,6.81,40.95,14.88,40.95s14.88-18.75,14.88-40.95C490.27,242.9,483.46,224.15,475.39,224.15z"/>
		<path class="st5" d="M474.44,285.63c-4.79,0-8.4-8.83-8.4-20.53c0-11.71,3.61-20.53,8.4-20.53c4.79,0,8.39,8.83,8.39,20.53
			C482.83,276.8,479.22,285.63,474.44,285.63z M474.44,246.56c-3.03,0-6.4,7.61-6.4,18.53c0,10.92,3.37,18.53,6.4,18.53
			c3.02,0,6.39-7.61,6.39-18.53C480.83,254.17,477.46,246.56,474.44,246.56z"/>
	</g>
	<path class="st2" d="M113.75,446.52l9.37-6.22l-18.26-27.49l-9.35,6.21l-4.06,2.69l-14.11,9.37l31.73,47.78
		C109.07,478.87,126.92,467.24,113.75,446.52"/>
	<path class="st5" d="M121.02,461.5c-0.17,0-0.35-0.04-0.51-0.14c-0.07-0.04-7.32-4.25-14.5-2.86c-0.55,0.11-1.07-0.25-1.17-0.79
		c-0.1-0.54,0.25-1.07,0.79-1.17c7.94-1.54,15.58,2.91,15.9,3.1c0.48,0.28,0.63,0.89,0.35,1.37
		C121.7,461.32,121.36,461.5,121.02,461.5z"/>
	<path class="st2" d="M262.78,485.59h-57.36v-33.04h33v11.25C262.97,464.28,262.78,485.59,262.78,485.59"/>
	<path class="st5" d="M243.2,477.48c-0.13,0-0.26-0.02-0.38-0.08c-0.51-0.21-0.75-0.8-0.54-1.31c3.11-7.46,11.04-11.37,11.38-11.53
		c0.5-0.24,1.09-0.03,1.33,0.46c0.24,0.5,0.03,1.09-0.46,1.34c-0.08,0.04-7.59,3.75-10.4,10.5
		C243.96,477.25,243.59,477.48,243.2,477.48z"/>
	<path class="st0" d="M179.16,276.49c0,0-10.4,72.84-86.29,138l41.99,43.53c0,0,40.58-30,65.15-77.86v77.86h62.77
		c0,0-12.08-139.73-20.44-180.44L179.16,276.49z"/>
	<path class="st7" d="M204.43,375.29c-0.2,0-0.39-0.06-0.57-0.18c-0.45-0.31-0.57-0.94-0.26-1.39c5.39-7.82,18.34-29.74,22.16-64.42
		c0.06-0.55,0.56-0.94,1.1-0.88c0.55,0.06,0.95,0.55,0.88,1.1c-3.87,35.13-17.03,57.39-22.51,65.33
		C205.06,375.14,204.75,375.29,204.43,375.29z"/>
	<path class="st3" d="M188.55,157.28c0.33,1.64,0.84,3.2,1.51,4.65c3.99,8.71,13.57,13.86,23.37,11.89
		c8.28-1.66,14.45-7.95,16.36-15.63c0.74-2.93,0.84-6.08,0.21-9.24c-2.3-11.43-13.44-18.83-24.88-16.53
		C193.67,134.72,186.25,145.85,188.55,157.28"/>
	<path class="st7" d="M223.59,163.53c-1.28,0-2.32-0.89-2.45-1.01c-0.41-0.37-0.45-1-0.08-1.41c0.37-0.41,1-0.45,1.41-0.08
		c0.23,0.21,0.85,0.6,1.27,0.49c0.39-0.1,0.66-0.68,0.79-1.02c0.2-0.52,0.77-0.77,1.29-0.58c0.52,0.2,0.77,0.77,0.58,1.29
		c-0.48,1.26-1.22,2.01-2.19,2.25C224,163.51,223.79,163.53,223.59,163.53z"/>
	<path class="st1" d="M251.81,301.6h-81.31v-79.09c0-22.45,18.2-40.66,40.66-40.66h0c22.45,0,40.66,18.2,40.66,40.66V301.6z"/>
	<polygon class="st4" points="90.53,255.52 77.34,288.08 432.3,274.11 432.3,285.37 475.53,264.14 432.66,242.58 432.3,254.94 	"/>
	<g>
		<path class="st1" d="M377.03,254.66l-5.92,1.39c-0.16-0.05-0.33-0.01-0.44,0.1c-0.09,0.09-0.13,0.21-0.11,0.35
			c0.26,1.73-0.3,5.61-0.39,6.33c-0.56,4.58-2.39,11.74-5.94,15.04c-1.07,0.99-2.32,1.66-3.81,1.58c-0.12-0.01-1.76-0.42-1.76-0.46
			c-5.75,6.65-11.04-1.31-11.04-1.31s-6.27,3.97-8.53-8.37c-0.86-1.75-1.47-3.66-1.76-5.67c-0.22-1.48-0.61-4.94-1.25-6.54
			c-1.07-2.65-3.17-2.78-5.97-4.41c6.35-9.11,12.63-18.3,18.88-27.51c4.9,4.11,9.18,8.5,12.5,13.01
			c10.36,6.62,12.01,8.51,14.61,13.71C376.69,253.07,376.97,253.97,377.03,254.66z"/>
		<path class="st2" d="M270.41,218.09c-4.13,33.21,45.05,25.2,63.37,36.82c6.3-9.89,12.53-19.85,18.74-29.84
			C324.13,199.05,274.68,183.7,270.41,218.09z"/>
		<path class="st6" d="M358.91,280.51c-0.19,0-0.39-0.06-0.56-0.17c-0.46-0.31-0.57-0.93-0.26-1.39c0.04-0.06,4.14-6.19,4.25-15.26
			c0.01-0.55,0.43-1.03,1.01-0.99c0.55,0.01,1,0.46,0.99,1.01c-0.12,9.7-4.42,16.1-4.6,16.36
			C359.54,280.36,359.23,280.51,358.91,280.51z"/>
		<path class="st6" d="M348.21,278.88c-0.19,0-0.39-0.06-0.56-0.17c-0.46-0.31-0.57-0.93-0.26-1.39c0.04-0.05,3.48-5.19,4.14-13
			c0.05-0.55,0.51-0.96,1.08-0.91c0.55,0.05,0.96,0.53,0.91,1.08c-0.71,8.36-4.33,13.73-4.48,13.95
			C348.84,278.72,348.53,278.88,348.21,278.88z"/>
		<path class="st6" d="M370.64,255.16c-0.47,0-0.89-0.34-0.98-0.82c-0.01-0.05-1.04-5.36-5.13-10.04c-0.36-0.42-0.32-1.05,0.09-1.41
			c0.41-0.36,1.05-0.32,1.41,0.09c4.47,5.1,5.55,10.75,5.59,10.99c0.1,0.54-0.26,1.06-0.8,1.16
			C370.76,255.15,370.7,255.16,370.64,255.16z"/>
	</g>
	<path class="st1" d="M424.29,279.38c-3.54,7.03-10.19,6.7-10.19,6.7c-1.25,0.98-2.53,1.68-3.76,2.17
		c-4.22,1.67-9.05,0.42-12.06-2.98l-1.68-1.9c-1.71-1.94-2.13-4.71-1.06-7.07c0.76-1.67,1.12-2.44,1.87-2.77
		c1.3-0.57,2.22-1.77,2.14-3.19c-0.08-1.28,0.28-2.59,1.07-3.6c1.03-1.32,2.72-2.04,4.38-2.01c0.86,0.02,1.67-0.56,1.88-1.4
		c0.35-1.34,1.56-2.59,2.85-3.28c1.03-0.55,2.11-0.91,3.22-1.12c3.36-0.64,6.16,0.99,8.95,2.97l1.35,0.96
		c2.23,1.58,4.62,3.16,5.31,5.8C430.47,275.89,424.29,279.38,424.29,279.38z"/>
	<path class="st6" d="M410.59,285.32c-1.75,0-8.15-4.32-9.7-9.83c-0.15-0.53,0.16-1.08,0.69-1.23c0.53-0.15,1.08,0.16,1.23,0.69
		c1.33,4.72,6.67,8.1,7.75,8.38c0,0,0,0,0,0c0.48,0,0.9,0.34,0.98,0.83c0.1,0.54-0.27,1.06-0.81,1.16
		C410.69,285.32,410.64,285.32,410.59,285.32z M410.39,283.34C410.39,283.34,410.39,283.34,410.39,283.34
		C410.39,283.34,410.39,283.34,410.39,283.34z"/>
	<path class="st6" d="M420.69,278.84c-0.11,0-0.22-0.02-0.33-0.06c-0.3-0.1-7.38-2.66-12.71-10.45c-0.31-0.46-0.2-1.08,0.26-1.39
		c0.46-0.31,1.08-0.19,1.39,0.26c4.96,7.26,11.65,9.67,11.72,9.69c0.52,0.18,0.8,0.75,0.61,1.27
		C421.49,278.58,421.11,278.84,420.69,278.84z"/>
	<path class="st7" d="M391.69,248.95c0,0-0.01,0-0.01,0c-0.55-0.01-1-0.46-0.99-1.01c0.26-23.45-9.6-38.77-9.7-38.92
		c-0.3-0.46-0.17-1.08,0.29-1.38c0.46-0.3,1.08-0.17,1.38,0.29c0.42,0.64,10.29,15.98,10.03,40.04
		C392.69,248.51,392.24,248.95,391.69,248.95z"/>
	<path class="st7" d="M348.21,224.15c-0.22,0-0.43-0.07-0.62-0.21c-0.22-0.18-22.67-17.57-44.19-17.57c-0.55,0-1-0.45-1-1
		c0-0.55,0.45-1,1-1c22.22,0,44.49,17.26,45.42,18c0.43,0.34,0.51,0.97,0.17,1.4C348.8,224.02,348.5,224.15,348.21,224.15z"/>
	<path class="st7" d="M330.12,252.74c-0.13,0-0.26-0.03-0.39-0.08c-6.66-2.79-14.34-3.71-14.42-3.72c-0.55-0.06-0.94-0.56-0.88-1.11
		c0.06-0.55,0.56-0.95,1.11-0.88c0.33,0.04,8.03,0.96,14.96,3.86c0.51,0.21,0.75,0.8,0.54,1.31
		C330.88,252.51,330.51,252.74,330.12,252.74z"/>
	<path class="st1" d="M414.04,253.39c0,0,1.26-3.43,6.69-3.55c5.44-0.12,8.1,6.16,3.77,7.63
		C420.17,258.95,414.04,258.87,414.04,253.39z"/>
	<path class="st3" d="M259.34,253.39c0,0,1.26-3.43,6.69-3.55c5.44-0.12,8.1,6.16,3.77,7.63
		C265.47,258.95,259.34,258.87,259.34,253.39z"/>
	<path class="st3" d="M150.76,253.39c0,0,1.26-3.43,6.69-3.55c5.44-0.12,8.1,6.16,3.77,7.63
		C156.88,258.95,150.76,258.87,150.76,253.39z"/>
	<path class="st3" d="M281.79,245.38c7.71-1.57,11.56,3.85,11.56,3.85c1.54,0.37,2.88,0.94,4.03,1.61
		c3.92,2.28,5.93,6.85,5.12,11.32l-0.46,2.49c-0.46,2.55-2.38,4.58-4.9,5.21c-1.78,0.44-2.61,0.63-3.34,0.24
		c-1.26-0.67-2.77-0.65-3.83,0.3c-0.96,0.85-2.21,1.39-3.49,1.39c-1.67,0.01-3.29-0.87-4.29-2.2c-0.52-0.69-1.47-0.96-2.26-0.62
		c-1.27,0.56-3,0.38-4.34-0.21c-1.07-0.47-2.02-1.09-2.88-1.84c-2.58-2.25-3.04-5.45-3.21-8.87l-0.08-1.65
		c-0.14-2.73-0.38-5.58,1.27-7.76C275.22,242.69,281.79,245.38,281.79,245.38z"/>
	<path class="st7" d="M292.4,266.58c-0.2,0-0.41-0.06-0.59-0.19c-0.45-0.32-0.55-0.95-0.22-1.4c2.88-3.97,2.23-10.25,1.79-11.27
		c-0.3-0.37-0.29-0.92,0.04-1.28c0.37-0.41,1-0.45,1.41-0.08c1.14,1.02,1.85,9.04-1.62,13.81
		C293.02,266.43,292.71,266.58,292.4,266.58z M293.5,253.85C293.5,253.85,293.5,253.85,293.5,253.85
		C293.5,253.85,293.5,253.85,293.5,253.85z"/>
	<path class="st7" d="M282.44,265.99c-0.1,0-0.2-0.02-0.3-0.05c-0.53-0.16-0.82-0.73-0.65-1.25c2.62-8.35,0.38-15.14,0.36-15.21
		c-0.18-0.52,0.1-1.09,0.62-1.27c0.52-0.18,1.09,0.1,1.27,0.62c0.1,0.3,2.48,7.44-0.35,16.45
		C283.26,265.72,282.87,265.99,282.44,265.99z"/>
	<path class="st3" d="M145.42,244.01c-7.52-2.32-11.89,2.7-11.89,2.7c-1.57,0.22-2.96,0.66-4.17,1.21
		c-4.13,1.88-6.57,6.24-6.2,10.76l0.21,2.53c0.21,2.58,1.92,4.8,4.36,5.66c1.73,0.61,2.53,0.89,3.3,0.57
		c1.32-0.54,2.82-0.38,3.78,0.67c0.87,0.94,2.06,1.6,3.34,1.73c1.66,0.17,3.36-0.55,4.48-1.77c0.59-0.64,1.56-0.82,2.31-0.39
		c1.21,0.68,2.95,0.67,4.34,0.21c1.11-0.36,2.12-0.89,3.04-1.55c2.79-1.98,3.56-5.12,4.06-8.51l0.24-1.63
		c0.4-2.7,0.92-5.52-0.51-7.85C152.22,241.97,145.42,244.01,145.42,244.01z"/>
	<path class="st7" d="M132.88,264.06c-0.34,0-0.68-0.18-0.86-0.49c-2.98-5.09-1.5-13-0.26-13.9c0.45-0.33,1.07-0.23,1.4,0.22
		c0.29,0.4,0.24,0.94-0.09,1.28c-0.54,0.97-1.81,7.16,0.67,11.39c0.28,0.48,0.12,1.09-0.36,1.37
		C133.22,264.02,133.05,264.06,132.88,264.06z M132.93,251.28C132.93,251.28,132.93,251.28,132.93,251.28
		C132.93,251.28,132.93,251.28,132.93,251.28z"/>
	<path class="st7" d="M142.84,264.46c-0.46,0-0.88-0.32-0.98-0.8c-1.93-9.24,1.14-16.12,1.27-16.41c0.23-0.5,0.82-0.72,1.32-0.49
		c0.5,0.23,0.72,0.82,0.5,1.32c-0.03,0.06-2.92,6.6-1.13,15.17c0.11,0.54-0.23,1.07-0.77,1.18
		C142.98,264.45,142.91,264.46,142.84,264.46z"/>
	<path class="st7" d="M251.81,244.27c-0.52,0-0.95-0.4-1-0.92c-0.02-0.29-2.45-29.18-11.03-42.07c-0.31-0.46-0.18-1.08,0.28-1.39
		c0.46-0.31,1.08-0.18,1.39,0.28c8.87,13.31,11.26,41.81,11.36,43.01c0.04,0.55-0.37,1.03-0.92,1.08
		C251.86,244.27,251.83,244.27,251.81,244.27z"/>
	<path class="st7" d="M171.82,249.04C171.82,249.04,171.82,249.04,171.82,249.04c-0.55,0-1-0.45-1-1c0-1.49,0.28-36.68,19.28-54.97
		c0.4-0.38,1.03-0.37,1.41,0.03c0.38,0.4,0.37,1.03-0.03,1.41c-18.39,17.69-18.67,53.17-18.67,53.53
		C172.82,248.59,172.37,249.04,171.82,249.04z"/>
	<path class="st4" d="M187.32,148.53c1.07-10.02,8.75-16.95,17.39-19.57c2.57-0.78,5.02-1.96,7.2-3.61
		c0.87-0.66,1.77-1.24,2.76-1.68c2.82-1.26,6.74-0.74,8.04,2.19c1.25-1.59,3.43-2.27,5.29-1.66c1.86,0.61,3.3,2.47,3.49,4.53
		c1.87-2.88,6.2-3.51,8.73-1.25c2.27,2.03,2.79,5.54,2.52,8.67c-0.45,5.19-4.02,13.16-10.09,12.52c-1-0.11-1.85-0.53-2.63-1.1
		c-2.13-0.76-4.78-2.18-7.95-4.77c0,0-6.32,8.33-18.23,9.41c0,0,0.85,8.2-1.7,13.04c0,0-3.08-8.07-8.51-9.6
		c-3.21-0.9-2.62,5.04-1.6,10.05c-1.11-1.76-2.02-3.67-2.67-5.7c-0.34-1.03-0.59-2.08-0.79-3.16
		C188.11,154.47,187.05,151.05,187.32,148.53z"/>
</g>
</svg>
