<?xml version="1.0" encoding="utf-8"?>
<!-- Generator: Adobe Illustrator 23.0.4, SVG Export Plug-In . SVG Version: 6.00 Build 0)  -->
<svg version="1.1" id="Layer_1" xmlns="http://www.w3.org/2000/svg" xmlns:xlink="http://www.w3.org/1999/xlink" x="0px" y="0px"
	 viewBox="0 0 612 612" style="enable-background:new 0 0 612 612;" xml:space="preserve">
<style type="text/css">
	.st0{fill:#3E1E69;}
	.st1{fill:#A6C4FF;}
	.st2{fill:#FFFFFF;}
	.st3{fill:#9666FF;}
	.st4{fill:#FFB81E;}
	.st5{fill:#FF814B;}
</style>
<g>
	<path class="st0" d="M248.72,264.22c0,0,5.61-29.6-13.14-29.6c0,0-47.92-21.05-59.62,22.04c-11.07,40.8-87.28,82.52-39.35,130.31
		c47.93,47.79,153.77,3.76,152.04-30.24C286.24,309.13,251.97,315.49,248.72,264.22z"/>
	<g>
		<path class="st1" d="M292.02,249c-3.12,0.99-4.75,4.44-3.8,7.57c0.36,1.18,0.79,2.59,1.44,4.72c1.43,7.34,4.32,20.04,10.44,34.97
			c12.23-6.35,42.8-9.02,35.69-20.81c-5.8-9.6-7-17.61-7.02-17.82l0.52-3.66c0,0,1.42-11.46-3.2-12.67
			c-4.29-1.12-4.71,1.49-4.64,3.27c-0.49-2.02-1.68-3.9-2.93-5.67c-7.1-10.02-12.75-8.65-12.77-8.65
			c-6.16,1.94,0.23,11.39,0.36,14.36c-1.72-1-3.91-2.27-5.97-1.62c-3.15,1.44-4.55,4.13-4.06,7.12
			C294.8,248.7,293.42,248.55,292.02,249z M318.96,253.85c0.11-0.24,0.21-0.48,0.34-0.67c0-0.01,0.01-0.02,0.02-0.03l-0.24,0.7
			L318.96,253.85z"/>
		<path class="st2" d="M296.47,267.77c-1.1,0-2.26-0.28-3.49-0.84c-0.5-0.23-0.73-0.82-0.5-1.32c0.23-0.5,0.82-0.72,1.32-0.5
			c1.66,0.75,3.1,0.86,4.31,0.31c2.07-0.94,2.9-3.57,2.91-3.6l0.58-1.96l1.19,1.67c1.57,2.19,3.57,2.17,4.62,1.95
			c1.78-0.36,3.37-1.71,3.69-3.15c0.52-2.28-1.39-5.87-2.92-8.75c-0.66-1.24-1.28-2.4-1.68-3.4c-0.21-0.51,0.04-1.09,0.55-1.3
			c0.51-0.21,1.09,0.04,1.3,0.55c0.37,0.9,0.96,2.02,1.59,3.21c1.78,3.34,3.79,7.13,3.11,10.13c-0.51,2.23-2.66,4.15-5.25,4.67
			c-2.06,0.41-4-0.13-5.53-1.5c-0.6,1.11-1.66,2.54-3.33,3.31C298.17,267.6,297.34,267.77,296.47,267.77z"/>
		<path class="st2" d="M301.98,263.11c-0.37,0-0.72-0.21-0.9-0.56l-3.92-7.96c-0.24-0.5-0.04-1.09,0.46-1.34
			c0.5-0.24,1.09-0.04,1.34,0.46l3.92,7.96c0.24,0.5,0.04,1.09-0.46,1.34C302.28,263.08,302.13,263.11,301.98,263.11z"/>
		<path class="st2" d="M315.2,268.52c-0.24,0-0.48-0.09-0.68-0.26c-0.17-0.16-4.22-3.94-3.44-8.56c0.52-3.11,3.07-5.73,7.57-7.8
			l0.1-2.29c0.02-0.55,0.5-0.97,1.04-0.96c0.55,0.02,0.98,0.49,0.96,1.04l-0.15,3.53l-0.57,0.25c-4.2,1.83-6.54,4.03-6.97,6.56
			c-0.6,3.56,2.79,6.72,2.82,6.75c0.41,0.37,0.43,1.01,0.06,1.41C315.73,268.41,315.46,268.52,315.2,268.52z"/>
	</g>
	<path class="st0" d="M480.29,416.77l-0.98-86.98c0-27.67-23.88-50.11-53.33-50.11h-3.01c-20.03,0-33.03,9.81-41.06,19.75
		c-6.85,8.48-19.95,7.92-26.16-1.04l-15.67-22.62l-44.55,20.48c19.71,72.12,65.1,86.68,65.1,86.68v33.83H480.29z"/>
	<path class="st0" d="M435.34,281.06c0,0,36.43-0.05,58.21,61.29c4.91,13.82-2.21,29.03-15.94,34.19l-16.3,6.12L435.34,281.06z"/>
	<g>
		<path class="st1" d="M355.43,354.04l5.96,4.62c0.21,0.02,0.37,0.16,0.44,0.34c0.05,0.14,0.04,0.3-0.06,0.45
			c-1.19,1.82-2.55,6.48-2.82,7.34c-1.73,5.45-3.35,14.48-1.05,20.02c0.69,1.66,1.76,3.07,3.48,3.74c0.14,0.05,2.21,0.44,2.23,0.39
			c3.06,10.46,13.13,4.21,13.13,4.21s5.03,7.7,13.94-5.05c1.87-1.53,3.54-3.37,4.9-5.49c1.01-1.55,3.23-5.26,4.78-6.73
			c2.58-2.44,5.01-1.5,9.01-1.89c-2.47-13.55-4.81-27.15-7.13-40.76c-7.64,2.11-14.74,4.86-20.8,8.23
			c-15.1,2.14-17.94,3.42-23.55,7.95C356.64,352.41,355.86,353.29,355.43,354.04z"/>
		<path class="st0" d="M494.56,367.72c-12.46,39.59-63.8,5.22-90.46,8.88c-2.02-14.4-3.91-28.85-5.77-43.32
			C443.76,318.56,507.45,326.72,494.56,367.72z"/>
		<path class="st2" d="M363.07,392.41c-0.48,0-0.9-0.34-0.98-0.83c-0.07-0.39-1.62-9.75,3.22-20.69c0.22-0.5,0.81-0.73,1.32-0.51
			c0.5,0.22,0.73,0.81,0.51,1.32c-4.58,10.36-3.1,19.45-3.08,19.54c0.09,0.54-0.27,1.06-0.82,1.16
			C363.18,392.41,363.13,392.41,363.07,392.41z"/>
		<path class="st2" d="M375.99,396.08c-0.48,0-0.9-0.34-0.98-0.83c-0.06-0.33-1.36-8.19,2.12-17.93c0.19-0.52,0.76-0.79,1.28-0.6
			c0.52,0.19,0.79,0.76,0.6,1.28c-3.31,9.25-2.05,16.84-2.03,16.91c0.09,0.54-0.27,1.06-0.81,1.16
			C376.1,396.07,376.05,396.08,375.99,396.08z"/>
	</g>
	<path class="st0" d="M492.62,435.75H119.38c-5.34,0-9.68-4.34-9.68-9.68c0-5.33,4.34-9.68,9.68-9.68h373.24
		c5.33,0,9.68,4.34,9.68,9.68C502.3,431.41,497.96,435.75,492.62,435.75z M119.38,418.4c-4.23,0-7.68,3.44-7.68,7.68
		c0,4.23,3.44,7.68,7.68,7.68h373.24c4.23,0,7.68-3.44,7.68-7.68c0-4.23-3.44-7.68-7.68-7.68H119.38z"/>
	<path class="st3" d="M188.66,309.13c0,0-41.19-1.1-65.34,70.98l44.24,12.39L188.66,309.13z"/>
	<path class="st4" d="M230.2,305.13c0,0,41.19-1.1,65.34,70.98L251.3,388.5L230.2,305.13z"/>
	<path class="st3" d="M215.19,303.16h-3.34c-32.74,0-59.29,18.59-59.29,41.53l-1.09,72.08h123v-72.08
		C274.47,321.75,247.93,303.16,215.19,303.16z"/>
	<path class="st5" d="M239.19,274.96c-0.28,1.48-0.69,2.93-1.21,4.32c-3.46,9.37-12.09,16.38-22.71,17.3
		c-10.86,0.94-20.76-4.75-25.68-13.73c0,0,0,0-0.01,0c-0.78-1.41-1.43-2.91-1.94-4.47c-0.64-1.92-1.06-3.94-1.24-6.04
		c-1.28-14.66,9.59-27.57,24.27-28.85c14.68-1.27,27.6,9.58,28.88,24.23C239.76,270.19,239.63,272.63,239.19,274.96z"/>
	<path class="st2" d="M224.11,284.81c-0.23,0-0.47-0.02-0.7-0.06c-1.82-0.31-2.76-1.74-2.86-1.9c-0.29-0.47-0.15-1.09,0.32-1.38
		c0.47-0.29,1.08-0.15,1.37,0.31c0.02,0.03,0.57,0.85,1.53,1c0.79,0.13,1.7-0.21,2.7-1c0.43-0.34,1.06-0.27,1.4,0.16
		c0.34,0.43,0.27,1.06-0.16,1.4C226.48,284.32,225.27,284.81,224.11,284.81z"/>
	<path class="st1" d="M435.76,241.26c0.31,2.09,0.37,4.15,0.19,6.17c-1.02,12.05-10.19,22.25-22.68,24.1
		c-10.54,1.56-20.55-3.27-26.09-11.57c-2.13-3.17-3.6-6.86-4.19-10.89c-2.15-14.55,7.92-28.1,22.49-30.25
		C420.04,216.66,433.6,226.71,435.76,241.26"/>
	<path class="st2" d="M400.93,262.23c-0.87,0-1.81-0.24-2.82-0.71c-0.5-0.23-0.72-0.83-0.48-1.33c0.23-0.5,0.83-0.72,1.33-0.48
		c1.16,0.54,2.12,0.66,2.86,0.35c0.91-0.38,1.25-1.32,1.25-1.33c0.19-0.52,0.76-0.79,1.27-0.61c0.52,0.18,0.8,0.74,0.62,1.26
		c-0.06,0.18-0.64,1.79-2.34,2.51C402.1,262.12,401.53,262.23,400.93,262.23z"/>
	<g>
		<path class="st5" d="M218.31,396.84c11.14,5.84,13.09,7.86,16.6,13.92c5.34,9.22-4.74,6.54-4.77,6.52
			c0.95,0.58,1.31,8.07,1.38,9.25c0.4,6.1,0.12,15.9-2.57,21.13c-0.81,1.57-1.85,2.79-3.28,3.07c-0.12,0.02-1.79-0.08-1.76-0.13
			c-4.09,10.18-10.71,1.26-10.71,1.26s-5.12,6.82-9.77-8.6c-1.17-2.05-2.14-4.36-2.82-6.9c-0.5-1.86-1.19-3.78-2.12-5.68
			c-11.81-23.99-72.55,4.71-78.22-31.42C113.23,354.4,190.6,362.89,218.31,396.84"/>
		<path class="st2" d="M224.24,452.23c-0.09,0-0.19-0.01-0.29-0.04c-0.53-0.16-0.83-0.72-0.67-1.25c0.03-0.09,2.71-9.29,0.95-21.29
			c-0.08-0.55,0.3-1.05,0.84-1.13c0.54-0.09,1.05,0.3,1.13,0.84c1.83,12.47-0.89,21.77-1.01,22.16
			C225.07,451.95,224.67,452.23,224.24,452.23z"/>
		<path class="st2" d="M213.78,452.96c-0.09,0-0.19-0.01-0.29-0.04c-0.53-0.16-0.83-0.72-0.67-1.25c0.02-0.08,2.28-7.79,1.31-18.28
			c-0.05-0.55,0.35-1.04,0.9-1.09c0.56-0.05,1.04,0.35,1.09,0.9c1.01,10.9-1.29,18.71-1.38,19.04
			C214.61,452.68,214.21,452.96,213.78,452.96z"/>
		<path class="st2" d="M230.2,416.14c-0.43,0-0.83-0.28-0.96-0.71c-0.02-0.07-2.1-6.79-6.97-11.82c-0.38-0.4-0.37-1.03,0.02-1.41
			c0.4-0.38,1.03-0.37,1.41,0.02c5.22,5.39,7.35,12.34,7.44,12.63c0.16,0.53-0.14,1.09-0.67,1.25
			C230.39,416.13,230.29,416.14,230.2,416.14z"/>
	</g>
	<g>
		<path class="st2" d="M356.97,417.86H253.14c-7.45,0-13.49-6.04-13.49-13.49V342.3c0-7.45,6.04-13.49,13.49-13.49h103.82
			c7.45,0,13.49,6.04,13.49,13.49v62.06C370.46,411.82,364.42,417.86,356.97,417.86z"/>
		<path class="st0" d="M356.97,418.86H253.14c-7.99,0-14.49-6.5-14.49-14.49V342.3c0-7.99,6.5-14.49,14.49-14.49h103.82
			c7.99,0,14.49,6.5,14.49,14.49v62.06C371.46,412.36,364.96,418.86,356.97,418.86z M253.14,329.81c-6.89,0-12.49,5.6-12.49,12.49
			v62.06c0,6.89,5.6,12.49,12.49,12.49h103.82c6.89,0,12.49-5.6,12.49-12.49V342.3c0-6.89-5.6-12.49-12.49-12.49H253.14z"/>
	</g>
	<path class="st0" d="M305.05,385.14c-6.51,0-11.81-5.3-11.81-11.81c0-6.51,5.3-11.81,11.81-11.81c0.55,0,1,0.45,1,1
		c0,0.55-0.45,1-1,1c-5.41,0-9.81,4.4-9.81,9.81c0,5.41,4.4,9.81,9.81,9.81c5.41,0,9.81-4.4,9.81-9.81c0-1.33-0.26-2.61-0.77-3.82
		c-0.21-0.51,0.02-1.1,0.53-1.31c0.51-0.21,1.1,0.02,1.31,0.53c0.62,1.46,0.93,3,0.93,4.6
		C316.86,379.85,311.56,385.14,305.05,385.14z"/>
	<path class="st2" d="M467.78,387.63c-28.71,0-51.73-9.66-51.97-9.77c-0.51-0.22-0.74-0.8-0.53-1.31c0.22-0.51,0.8-0.75,1.31-0.53
		c0.26,0.11,26.38,11.07,57.54,9.44c0.54-0.04,1.02,0.4,1.05,0.95c0.03,0.55-0.4,1.02-0.95,1.05
		C472.05,387.58,469.9,387.63,467.78,387.63z"/>
	<path class="st2" d="M409.37,334.24c-0.31,0-0.61-0.14-0.81-0.41c-0.32-0.45-0.22-1.07,0.22-1.4c0.26-0.19,26.21-18.52,65.76-3.27
		c0.52,0.2,0.77,0.78,0.57,1.29c-0.2,0.52-0.78,0.77-1.29,0.57c-38.55-14.87-63.62,2.84-63.86,3.02
		C409.78,334.17,409.57,334.24,409.37,334.24z"/>
	<path class="st2" d="M441.77,323.95c-0.37,0-0.72-0.2-0.9-0.55l-4.73-9.44c-0.25-0.49-0.05-1.09,0.45-1.34
		c0.5-0.25,1.09-0.05,1.34,0.45l4.73,9.44c0.25,0.49,0.05,1.09-0.45,1.34C442.08,323.92,441.92,323.95,441.77,323.95z"/>
	<path class="st0" d="M361.81,244.39c-0.25,0-0.5-0.1-0.69-0.27l-9.45-8.9c-2.77-2.61-6.39-4.04-10.19-4.04h-9.29
		c-5.92,0-11.45-2.35-15.56-6.61c-4.11-4.26-6.26-9.87-6.05-15.8c0.41-11.49,10.32-20.83,22.1-20.83h19.94
		c11.43,0,21.09,8.71,21.99,19.84l0,0c0.43,5.28-1.09,10.5-4.26,14.73l-7.62,21.22c-0.11,0.32-0.38,0.56-0.71,0.63
		C361.96,244.38,361.89,244.39,361.81,244.39z M332.69,189.94c-10.71,0-19.73,8.48-20.1,18.9c-0.19,5.38,1.76,10.47,5.49,14.34
		c3.73,3.87,8.75,6,14.12,6h9.29c4.31,0,8.42,1.63,11.56,4.59l8.33,7.85l7.07-19.7c0.02-0.16,0.09-0.31,0.19-0.45
		c2.97-3.87,4.38-8.67,3.99-13.53c-0.82-10.09-9.6-18-19.99-18H332.69z"/>
	<path class="st0" d="M360.52,202.15H323.1c-0.55,0-1-0.45-1-1c0-0.55,0.45-1,1-1h37.41c0.55,0,1,0.45,1,1
		C361.52,201.7,361.07,202.15,360.52,202.15z"/>
	<path class="st0" d="M360.52,219.53h-24.67c-0.55,0-1-0.45-1-1c0-0.55,0.45-1,1-1h24.67c0.55,0,1,0.45,1,1
		C361.52,219.08,361.07,219.53,360.52,219.53z"/>
	<path class="st0" d="M340.64,211.17H323.1c-0.55,0-1-0.45-1-1c0-0.55,0.45-1,1-1h17.54c0.55,0,1,0.45,1,1
		C341.64,210.72,341.19,211.17,340.64,211.17z"/>
	<path class="st5" d="M255.3,240.01c-0.27,0-0.54-0.11-0.73-0.32l-20.1-21.51c-5.94-3.39-10.41-8.81-12.6-15.29l0,0
		c-4.61-13.63,2.38-28.88,15.92-34.72l23.88-10.29c13.95-6.01,30.46-0.01,36.81,13.38c3.28,6.91,3.6,14.66,0.9,21.8
		c-2.69,7.15-8.04,12.75-15.05,15.77l-11.12,4.79c-4.62,1.99-8.27,5.63-10.27,10.26l-6.72,15.52c-0.13,0.31-0.41,0.53-0.75,0.59
		C255.41,240.01,255.35,240.01,255.3,240.01z M236.04,216.94l18.95,20.27l6.11-14.12c2.2-5.09,6.22-9.1,11.31-11.3l11.12-4.79
		c6.51-2.81,11.47-8,13.97-14.64c2.5-6.63,2.2-13.82-0.84-20.24c-5.89-12.43-21.24-18-34.21-12.4l-23.88,10.29
		c-12.59,5.43-19.09,19.59-14.81,32.24c2.06,6.09,6.29,11.17,11.9,14.31C235.82,216.66,235.95,216.79,236.04,216.94z"/>
	<path class="st0" d="M242.21,275.9c-3.8-2.75-8.89-7.85-14.05-17.3c0,0-10.73,16.85-41.25,26.52c0,0,0,0-0.01,0
		c-0.87-1.65-1.59-3.4-2.16-5.22c-0.71-2.24-1.18-4.6-1.38-7.06c-1.43-17.13,10.69-32.21,27.06-33.71
		c16.37-1.48,30.77,11.19,32.2,28.31C242.84,270.33,242.7,273.18,242.21,275.9z"/>
	<path class="st2" d="M183.23,370.34c-0.08,0-0.17-0.01-0.25-0.03c-0.53-0.14-0.86-0.68-0.72-1.22l5.42-21.07
		c0.14-0.53,0.68-0.86,1.22-0.72c0.53,0.14,0.86,0.68,0.72,1.22l-5.42,21.07C184.09,370.04,183.68,370.34,183.23,370.34z"/>
	<path class="st5" d="M434.48,254.15c0,0-11.25,0.19-18.28-11.99c0,0-41.34,16.53-41.5-6.77c-0.16-23.3,23.63-19.22,23.63-19.22
		s2.45-16.51,17.87-6c0,0,18.56-8.55,18.28,8.36c0,0,14.59,5.35,7.29,20.49C441.77,239.01,450.5,255.1,434.48,254.15z"/>
	<g>
		<g>
			<path class="st5" d="M267.86,187.85c1.52,3.53-0.11,7.62-3.64,9.14c-3.53,1.52-7.62-0.11-9.15-3.64
				c-1.52-3.53,0.11-7.62,3.64-9.14C262.25,182.69,266.34,184.32,267.86,187.85z"/>
			<path class="st5" d="M285.67,180.17c1.52,3.53-0.11,7.62-3.64,9.14c-3.53,1.52-7.62-0.11-9.14-3.64
				c-1.52-3.53,0.11-7.62,3.64-9.15C280.05,175.02,284.15,176.64,285.67,180.17z"/>
			<circle class="st5" cx="243.95" cy="198.16" r="6.96"/>
		</g>
	</g>
</g>
</svg>
