<?xml version="1.0" encoding="utf-8"?>
<!-- Generator: Adobe Illustrator 23.0.4, SVG Export Plug-In . SVG Version: 6.00 Build 0)  -->
<svg version="1.1" id="Layer_1" xmlns="http://www.w3.org/2000/svg" xmlns:xlink="http://www.w3.org/1999/xlink" x="0px" y="0px"
	 viewBox="0 0 612 612" style="enable-background:new 0 0 612 612;" xml:space="preserve">
<style type="text/css">
	.st0{fill:#1D0A3A;}
	.st1{fill:#FFD488;}
	.st2{fill:#F7578C;}
	.st3{fill:#FFFFFF;}
	.st4{fill:#A6C4FF;}
	.st5{fill:#9666FF;}
	.st6{fill:#030047;}
	.st7{display:none;fill:#1D0A3A;}
</style>
<g>
	<path class="st0" d="M443.48,507.36c0,1.41-61.08,2.55-136.42,2.55s-136.42-1.14-136.42-2.55s61.08-2.55,136.42-2.55
		S443.48,505.95,443.48,507.36"/>
	<path class="st1" d="M372.73,173.16c-13.43-23.16-32.61-20.26-36.06-32.38c-5.55-19.47-20.27-10.52-22.06-19.69
		c-0.55-2.83-4-7.5-6.26-9.35c-1.47-1.2-3.3-0.7-5.19-0.66c-9.3-3.6-22.65-1.97-30.16,2.28c-2.05,1.16-4.62,1.01-5.75,3.04
		c-1.41,2.55-2.87,8.14-2.32,10.98c1.77,9.17-15.26,6.22-13.13,26.34c1.32,12.52-17.58,16.83-21.4,43.25
		c-2.05,14.23,1.61,23.26,5.83,30.68c2.26,43.18,48.24,62.84,85.69,38.34c37.79,2.49,66.39-27.71,57.08-63.7
		C379.91,194.21,379.54,184.9,372.73,173.16"/>
	<path class="st2" d="M270.91,143.27c1.09,1.46,2.32,2.76,3.67,3.88c8.01,6.73,19.87,7.32,28.62,0.78
		c7.39-5.52,10.54-14.6,8.82-23.07c-0.65-3.24-2.02-6.39-4.12-9.21c-7.61-10.19-22.07-12.28-32.28-4.65
		C265.39,118.62,263.29,133.08,270.91,143.27"/>
	<path class="st0" d="M280.84,144.89c-1.36,0-2.32-0.76-2.43-0.86c-0.42-0.35-0.48-0.98-0.13-1.41c0.35-0.42,0.98-0.48,1.4-0.13
		c0.03,0.02,0.66,0.5,1.42,0.38c0.64-0.1,1.27-0.61,1.85-1.5c0.3-0.46,0.92-0.59,1.38-0.29c0.46,0.3,0.59,0.92,0.29,1.38
		c-0.92,1.4-2.01,2.2-3.25,2.38C281.19,144.88,281.01,144.89,280.84,144.89z"/>
	<path class="st0" d="M408.28,481.73l-5.84-13.17l-44.52,0.14l7.21,38.67l71.35-0.24C436.48,507.13,438.76,482.2,408.28,481.73"/>
	<path class="st3" d="M412.99,497.56c-0.16,0-0.32-0.04-0.46-0.11c-0.49-0.26-0.68-0.86-0.42-1.35c4.54-8.65,14.66-13.2,15.09-13.39
		c0.51-0.22,1.09,0,1.32,0.51c0.22,0.5,0,1.1-0.51,1.32c-0.1,0.04-9.92,4.46-14.12,12.49C413.7,497.36,413.35,497.56,412.99,497.56z
		"/>
	<path class="st0" d="M259.84,506.96h75.59v-36.5h-43.49v12.42C259.6,483.43,259.84,506.96,259.84,506.96"/>
	<path class="st3" d="M285.64,497.9c-0.37,0-0.72-0.2-0.9-0.55c-3.74-7.53-13.73-11.64-13.83-11.68c-0.51-0.21-0.76-0.79-0.55-1.3
		c0.21-0.51,0.79-0.76,1.3-0.55c0.44,0.18,10.79,4.45,14.87,12.65c0.25,0.5,0.04,1.09-0.45,1.34
		C285.95,497.87,285.79,497.9,285.64,497.9z"/>
	<path class="st4" d="M419.18,471.29c-27.2-131.81-41.92-195.49-41.92-195.49l-93.43-1.99c-9.02,46.29-17.63,198.09-17.63,198.09
		l72.25,3.18l-3.03-78.26c12.01,61.15,15.17,78.26,15.17,78.26L419.18,471.29z"/>
	<path class="st0" d="M333.64,392.3c-0.46,0-0.87-0.32-0.98-0.79c-0.12-0.54-11.73-53.75-12.87-76.34c-0.03-0.55,0.4-1.02,0.95-1.05
		c0.53-0.04,1.02,0.4,1.05,0.95c1.12,22.43,12.7,75.48,12.82,76.01c0.12,0.54-0.22,1.07-0.76,1.19
		C333.78,392.29,333.71,392.3,333.64,392.3z"/>
	<path class="st2" d="M222.66,209.13c0,0,0.75-16.87-8.3-11.52c-3.66,2.16-3.02,4.94-2.25,6.46c-1.23-1.56-3-2.75-4.8-3.77
		c-4.31-2.44-9.7-4.32-14.5-2.47c-1.8,0.69-3.56,2.38-2.99,4.05c-1.81-0.98-4.39-0.62-5.9,0.82c-1.51,1.44-1.81,3.83-0.68,5.47
		c-2.7,1.37-3.32-0.32-4.92,2.11c-1.83,2.78-0.51,5.03,1.45,7.61c1.26,1.66,5.62,6.9,11.33,13.35c4.16,5.82,11.72,15.72,22.98,26.28
		c8.12-10.38,15.78-21.13,22.78-32.28C227.37,216.32,222.76,209.31,222.66,209.13 M213.73,213.09l-0.1,0.04
		c0-0.25-0.01-0.5,0.02-0.72c0-0.01,0-0.02,0-0.03L213.73,213.09z"/>
	<path class="st0" d="M194.64,215.56c-0.24,0-0.48-0.09-0.68-0.26c-5.22-4.81-10.84-6.54-10.89-6.55c-0.53-0.16-0.83-0.72-0.67-1.25
		c0.16-0.53,0.72-0.83,1.24-0.67c0.25,0.07,6.1,1.86,11.68,7c0.41,0.37,0.43,1.01,0.06,1.41
		C195.18,215.45,194.91,215.56,194.64,215.56z"/>
	<path class="st0" d="M203.32,210.62c-0.25,0-0.49-0.09-0.68-0.27c-5.77-5.42-12.23-7.2-12.29-7.21c-0.53-0.14-0.85-0.69-0.71-1.22
		c0.14-0.53,0.69-0.85,1.22-0.71c0.28,0.08,7.01,1.93,13.15,7.69c0.4,0.38,0.42,1.01,0.04,1.41
		C203.85,210.51,203.59,210.62,203.32,210.62z"/>
	<path class="st0" d="M210.62,224.98c-0.19,0-0.37-0.05-0.54-0.16c-0.19-0.12-4.63-3.05-4.65-7.55c-0.01-3.02,1.97-5.91,5.87-8.6
		l-0.27-2.15c-0.07-0.55,0.32-1.05,0.87-1.12c0.55-0.07,1.05,0.32,1.12,0.87l0.43,3.38l-0.52,0.34c-3.65,2.39-5.5,4.84-5.49,7.27
		c0.01,3.43,3.7,5.85,3.73,5.87c0.46,0.3,0.6,0.92,0.3,1.38C211.27,224.82,210.95,224.98,210.62,224.98z"/>
	<path class="st5" d="M300.54,259.33c-2.36-13.96-5.32-29.49-7.8-44.86c-4.33-1.65-9.05-2.16-13.76-1.14
		c-0.8,2.8-1.88,5.51-3.26,8.09c-14.71,27.52-38.86,3.83-38.86,3.83l-22.78,32.28C260.97,302.67,296.77,277.51,300.54,259.33"/>
	<path class="st5" d="M328.6,156.06c-6.9-1.14-13.26-1.33-19.09-0.78c-22.74,2.15-39.43,22.33-37.75,45.11
		c1.16,15.78,3.35,31.59,3.72,47.24c0.15-0.14,0.3-0.28,0.45-0.42l0.24,48.03l108.65-11.48
		C384.81,283.77,383.67,165.16,328.6,156.06"/>
	<path class="st3" d="M313.3,235.38c-5.84,0-11.18-0.77-15.3-1.96c-0.53-0.15-0.84-0.71-0.68-1.24c0.15-0.53,0.7-0.84,1.24-0.69
		c13.22,3.79,39.37,3.23,53.27-14.44c5.61-7.12,6.69-20.81,2.64-33.28c-0.17-0.52,0.12-1.09,0.64-1.26
		c0.53-0.17,1.09,0.12,1.26,0.64c4.32,13.27,3.12,27.39-2.97,35.13C343.25,231.19,326.9,235.38,313.3,235.38z"/>
	<path class="st3" d="M301.79,199.1c-0.5,0-0.94-0.38-0.99-0.89c-0.06-0.55,0.34-1.04,0.89-1.1c0.16-0.02,0.4-0.04,0.72-0.07
		c18.8-1.69,23.69-6.13,24.93-8.63c0.25-0.49,0.85-0.7,1.34-0.45c0.49,0.25,0.7,0.85,0.45,1.34c-2.54,5.1-11.47,8.38-26.54,9.73
		c-0.3,0.03-0.53,0.05-0.69,0.06C301.86,199.09,301.82,199.1,301.79,199.1z"/>
	<path class="st1" d="M267.01,139.52c0.98,1.7,8.23-3.81,9.73-11.05c7.63,11.22,29.76,9.4,36.78-3.54c1.63-3-0.29-7.67-2.18-10.94
		c-6.82-11.84-23.07-15.28-35.03-8.39C264.36,112.5,260.2,127.68,267.01,139.52"/>
	<path class="st0" d="M281.22,234.49l-1.32,0.57c-1.41,0.61-3.06-0.03-3.67-1.45l-21.38-49.2c-0.62-1.41,0.03-3.06,1.45-3.67
		l1.32-0.57c1.41-0.61,3.06,0.03,3.67,1.45l21.39,49.2C283.28,232.24,282.64,233.88,281.22,234.49"/>
	<path class="st2" d="M289.35,199.48c-0.62-0.23-1.23-0.45-1.85-0.66c-9.59-7.92-11.93-8.93-17.75-9.82
		c-3.02-0.46-4.2,0.19-4.44,1.25c1.05,2.43,1.81,4.02,2.22,4.87c0.14,0.28-0.05,0.6-0.36,0.63c-1.7,0.21-5.42,2.03-6.1,2.35
		c-4.24,1.96-10.58,5.95-12.65,10.39c-0.62,1.33-0.89,2.75-0.34,4.16c0.04,0.12,0.97,1.6,0.99,1.56c-3.17,7.51,4.2,8.86,4.23,8.87
		c-0.23-0.07,0.18,2.56,0.25,2.72c1.03,2.37,2.02,4.04,6.59,4.49c6.72,0.66,12.31-2.03,19.05-2.33c3.46-0.16,8.5,1.14,11.88,0.98
		c0.96-0.04,1.73-0.84,1.67-1.81c-0.07-1.16-0.23-2.33-0.32-3.48c-0.54-7.01-1.23-13.82-2.46-20.75
		C289.89,202.48,289.64,199.59,289.35,199.48"/>
	<path class="st6" d="M250.44,213.05c-0.21,0-0.43-0.07-0.61-0.21c-0.44-0.34-0.52-0.97-0.18-1.4c0.2-0.26,5.03-6.38,14.34-9.5
		c0.52-0.18,1.09,0.11,1.27,0.63c0.18,0.52-0.11,1.09-0.63,1.27c-8.74,2.93-13.35,8.77-13.39,8.83
		C251.04,212.91,250.74,213.05,250.44,213.05z"/>
	<path class="st6" d="M254.71,222.68c-0.21,0-0.43-0.07-0.61-0.21c-0.44-0.34-0.52-0.97-0.18-1.4c0.17-0.22,4.22-5.37,12.05-8.64
		c0.51-0.21,1.1,0.03,1.31,0.54c0.21,0.51-0.03,1.1-0.54,1.31c-7.35,3.08-11.2,7.97-11.24,8.02
		C255.31,222.54,255.01,222.68,254.71,222.68z"/>
	<path class="st6" d="M275.47,196.23c-0.05,0-0.11,0-0.17-0.01c-3.4-0.57-5.86-0.26-5.89-0.26c-0.55,0.07-1.05-0.32-1.12-0.86
		c-0.07-0.55,0.32-1.05,0.86-1.12c0.11-0.02,2.79-0.35,6.48,0.27c0.54,0.09,0.91,0.61,0.82,1.15
		C276.37,195.89,275.95,196.23,275.47,196.23z"/>
	<path class="st3" d="M276.76,279.14c-0.54,0-0.99-0.43-1-0.98l-0.71-31.44c-0.01-0.55,0.42-1.01,0.98-1.02
		c0.54-0.05,1.01,0.42,1.02,0.98l0.71,31.44c0.01,0.55-0.42,1.01-0.98,1.02C276.77,279.14,276.77,279.14,276.76,279.14z"/>
	<path class="st0" d="M268.38,179.27c0.41-4.76-0.56-10.78-2.99-17.01c-4.85-12.44-13.41-20.32-19.5-17.95l-6.36,2.48l1.59,4.09
		c-1.19,5.06-0.4,12.29,2.54,19.84c2.94,7.55,7.25,13.42,11.55,16.34l1.59,4.09l6.36-2.48
		C266.21,187.49,267.98,184.01,268.38,179.27L268.38,179.27L268.38,179.27z M245.63,169.96c-2.09-5.36-3.04-10.69-2.9-14.96
		l10.88,27.93C250.63,179.88,247.72,175.32,245.63,169.96"/>
	<path class="st4" d="M258.05,165.12c4.56,11.71,3.83,22.92-1.62,25.05c-5.46,2.13-13.58-5.64-18.14-17.35
		c-4.56-11.71-3.83-22.92,1.62-25.05C245.37,145.64,253.49,153.41,258.05,165.12"/>
	<path class="st0" d="M254.52,191.52c-2.52,0-5.35-1.41-8.18-4.12c-3.53-3.38-6.72-8.43-8.97-14.22
		c-4.83-12.41-3.87-23.98,2.19-26.34c6.06-2.36,14.6,5.51,19.43,17.92c2.26,5.8,3.33,11.67,3.01,16.55c-0.33,5.14-2.18,8.62-5.2,9.8
		C256.07,191.38,255.31,191.52,254.52,191.52z M241.85,148.41c-0.55,0-1.07,0.09-1.57,0.29c-4.85,1.89-5.33,12.77-1.05,23.76
		c2.15,5.53,5.17,10.33,8.49,13.5c3.08,2.95,6.13,4.14,8.35,3.28c2.22-0.87,3.66-3.81,3.93-8.06c0.3-4.59-0.73-10.16-2.88-15.69
		C253.28,155.62,246.67,148.41,241.85,148.41z"/>
	<path class="st4" d="M226.6,219.83c-1.05,3.87-2.74,8.55-5.54,13.58c-6.42,11.56-15.26,18.87-20.62,22.67
		c-10.64-16.57-21.28-33.14-31.92-49.71c4.22-2.31,14.93-8.84,21.44-21.25c3.08-5.88,4.25-11.22,4.71-15
		C205.32,186.69,215.96,203.26,226.6,219.83"/>
	<path class="st2" d="M214.36,197.61c0,0-7.44,4.92-1.98,11.55c3.12,3.78,10.28-0.03,10.28-0.03L214.36,197.61z"/>
	<polygon class="st7" points="193.07,232.37 194.64,217.51 199.67,217.31 199.67,204.22 196.37,202.88 200.16,193.47 207.14,204.22 
		203.32,204.22 206.44,223.98 200.11,223.98 202.05,234.42 	"/>
</g>
</svg>
