<?xml version="1.0" encoding="utf-8"?>
<!-- Generator: Adobe Illustrator 23.0.4, SVG Export Plug-In . SVG Version: 6.00 Build 0)  -->
<svg version="1.1" id="Layer_1" xmlns="http://www.w3.org/2000/svg" xmlns:xlink="http://www.w3.org/1999/xlink" x="0px" y="0px"
	 viewBox="0 0 612 612" style="enable-background:new 0 0 612 612;" xml:space="preserve">
<style type="text/css">
	.st0{fill:#030047;}
	.st1{fill:#FFD488;}
	.st2{fill:#FFFFFF;}
	.st3{fill:#F7578C;}
	.st4{fill:#9666FF;}
	.st5{fill:#A6C4FF;}
</style>
<g>
	<path class="st0" d="M455.48,534.04c0-1.83-67.57-3.32-150.91-3.32s-150.91,1.49-150.91,3.32s67.57,3.32,150.91,3.32
		S455.48,535.87,455.48,534.04z"/>
	<path class="st1" d="M176.24,379.47c0,0-64.34,132.95,24.12,153.61H329.6c8.22,0,15.41-5.55,17.45-13.51
		c9.59-37.37,22.35-140.22-122.45-153.84l5.32-15.96c0.65-1.94-1.43-3.71-3.57-3.06l-19.37,5.88c-4.01,1.22-8.44,0.64-11.88-1.56
		l-8.79-5.61c-1.46-0.93-3.52-0.4-4.2,1.09l-3.83,8.43c-1.3,2.86-3.82,5.16-7,6.38l-9.04,3.47c-1.93,0.74-2.28,3.05-0.64,4.23
		L176.24,379.47z"/>
	<path class="st0" d="M176.24,381.97c-1.3,0-2.4-1.01-2.49-2.33c-0.09-1.38,0.95-2.57,2.32-2.66c0.29-0.02,28.81-2.08,47.22-13.38
		c1.18-0.72,2.72-0.35,3.44,0.82c0.72,1.18,0.35,2.72-0.82,3.44c-19.47,11.95-48.28,14.03-49.5,14.11
		C176.36,381.97,176.3,381.97,176.24,381.97z"/>
	<g>
		<path class="st2" d="M208.56,511.5l-2.35-10.24c-5.91,1.25-12.41,0.82-16.54-0.9l0.88-7.35c4.21,1.6,9.93,2.32,15.6,1.01
			c7.2-1.65,11.12-6.93,9.79-12.71c-1.28-5.58-6.03-8.12-14.23-9.44c-11.28-1.68-18.73-4.88-20.76-13.71
			c-1.93-8.42,2.59-16.18,11.57-19.84l-2.35-10.24l6.29-1.44l2.26,9.84c6.13-1.19,10.66-0.52,14,0.53l-1,7.28
			c-2.41-0.73-7.08-2.01-13.57-0.52c-7.81,1.79-9.68,7.13-8.75,11.19c1.21,5.27,5.57,7.05,15.23,8.68
			c11.42,1.86,17.91,5.93,19.98,14.96c1.84,8.01-2.02,16.8-12.07,20.92l2.42,10.55L208.56,511.5z"/>
	</g>
	<path class="st0" d="M173.59,441.51c-1.2,0-2.26-0.87-2.46-2.09c-4.95-30.15,11.97-61.04,12.7-62.34c0.67-1.21,2.19-1.64,3.4-0.97
		c1.21,0.67,1.64,2.19,0.97,3.4c-0.17,0.3-16.79,30.69-12.13,59.1c0.22,1.36-0.7,2.65-2.06,2.87
		C173.86,441.5,173.73,441.51,173.59,441.51z"/>
	<path class="st0" d="M208.9,488.95c-0.01,0-0.01,0-0.02,0c-1.38-0.01-2.49-1.14-2.48-2.52c0.54-74.09-13.64-108.46-13.78-108.79
		c-0.54-1.27,0.05-2.74,1.33-3.28c1.27-0.54,2.74,0.05,3.28,1.32c0.6,1.41,14.73,35.5,14.18,110.79
		C211.39,487.84,210.27,488.95,208.9,488.95z"/>
	<path class="st3" d="M385.32,159.79c13.45,9.29,27.24,17.78,41.41,25.69c3.6-12.11,5.16-22.51,6.06-30.34
		c1.45-6.71,2.62-12.59,3.4-16.75c-12.4-3.52-24.39-8.12-34.61-16.48c-1.69,1.8-3.15,3.87-4.39,5.95c-1.34,2.25-2.56,4.69-2.96,7.25
		c-0.07-2.24-1.02-5.71-6.21-6.35c-7.78-0.95-2.18,18.47-2.18,18.47C385.83,147.45,386.23,152.19,385.32,159.79z M397.44,145.87
		c0.01,0.01,0.01,0.02,0.02,0.03c0.16,0.24,0.3,0.54,0.45,0.84l-0.13,0.01L397.44,145.87z"/>
	<path class="st1" d="M391.92,94.69c0,0,9.59,40.94,66.43,53.96l-19.34,27.93c0,0-39.57-43.15-72.16-54.25L391.92,94.69z"/>
	<path class="st3" d="M384.16,130.72c0,0,4.81-5.93,10.11-0.77c5.3,5.16,7.96,18.81,7.96,18.81L384.16,130.72z"/>
	<path class="st3" d="M430.16,144.8c-3.56,1.65-7.38,2.43-11.07,1.33c-2.25-0.67-4.57-2.65-4.05-4.94
		c-2.11,1.54-5.27,1.42-7.25-0.28c-1.98-1.7-2.58-4.8-1.38-7.12c-3.42-1.44-4,0.87-6.19-2.12c-2.51-3.41-1.12-6.57,0.99-10.23
		c0.53-0.91,1.57-2.6,3.01-4.86C414.41,124.48,423.81,133.23,430.16,144.8"/>
	<path class="st3" d="M404.23,116.58c0,0,6.6-3.17,13.89,0.51c0,0,7.1-1.8,12.45,5.01c0,0,7.27,2.37,6.97,10.39
		c-0.12,3.1-1.47,6.02-3.59,8.28l-3.78,4.03l-7.46-9.95l-13.4-11.43L404.23,116.58z"/>
	<path class="st2" d="M407.27,132.48c-0.03,0-0.05,0-0.08,0c-0.55-0.04-0.96-0.52-0.92-1.07c0.49-6.43,6.72-12.6,8.39-12.64
		c0.01,0,0.02,0,0.02,0c0.54,0,0.99,0.43,1,0.98c0.01,0.5-0.34,0.92-0.82,1.01c-1.06,0.5-6.19,5.41-6.6,10.81
		C408.23,132.08,407.79,132.48,407.27,132.48z"/>
	<path class="st2" d="M415.75,139.12c-0.06,0-0.11,0-0.17-0.01c-0.54-0.09-0.91-0.61-0.82-1.15c1.77-10.38,9.41-14.47,9.73-14.64
		c0.49-0.26,1.09-0.06,1.35,0.42c0.25,0.49,0.07,1.09-0.42,1.35c-0.1,0.05-7.09,3.86-8.69,13.2
		C416.65,138.78,416.22,139.12,415.75,139.12z"/>
	<path class="st3" d="M252.64,127.3c0,0,9.53-17.82,1.72-18.52c-5.21-0.46-6.87,2.73-7.4,4.91c0.14-2.59-0.54-5.22-1.39-7.71
		c-0.78-2.3-1.78-4.63-3.05-6.74c-11.74,6.04-24.42,8.04-37.28,8.9c-0.11,4.24-0.19,10.22-0.17,17.09
		c-0.76,7.85-1.4,18.34-0.41,30.93c15.51-4.78,30.77-10.21,45.86-16.49C251.21,132.06,252.6,127.51,252.64,127.3z M241.07,124.34
		l-0.13-0.03c0.2-0.26,0.41-0.53,0.61-0.73c0.01-0.01,0.02-0.02,0.03-0.03L241.07,124.34z"/>
	<path class="st1" d="M257.65,74.65c0,0-17.92,38.04-76.22,38.91l13.08,31.35c0,0,47.7-33.95,81.89-38L257.65,74.65z"/>
	<path class="st3" d="M257.72,111.5c0,0-3.47-6.81-9.72-2.86c-6.26,3.94-11.71,16.73-11.71,16.73L257.72,111.5z"/>
	<path class="st3" d="M209.79,115.68c3.13,2.35,6.71,3.92,10.55,3.61c2.34-0.19,5.02-1.64,4.99-3.99c1.74,1.94,4.86,2.48,7.15,1.24
		c2.29-1.25,3.53-4.16,2.83-6.68c3.64-0.7,3.73,1.69,6.5-0.78c3.16-2.81,2.47-6.19,1.16-10.21c-0.32-1-0.99-2.87-1.93-5.38
		C229.43,99.09,218.42,105.68,209.79,115.68"/>
	<path class="st3" d="M241.04,93.49c0,0-5.79-4.48-13.7-2.4c0,0-6.57-3.25-13.22,2.3c0,0-7.61,0.8-8.99,8.71
		c-0.53,3.05,0.18,6.2,1.79,8.85l2.86,4.73l9.37-8.17l15.49-8.38L241.04,93.49z"/>
	<path class="st2" d="M234.96,108.42c-0.04,0-0.09,0-0.14-0.01c-0.55-0.07-0.93-0.58-0.86-1.12c0.72-5.37-3.26-11.24-4.2-11.95
		c-0.45-0.19-0.7-0.67-0.59-1.16c0.13-0.54,0.67-0.87,1.21-0.74c1.62,0.39,6.43,7.73,5.56,14.12
		C235.88,108.06,235.45,108.42,234.96,108.42z M229.92,95.38h0.01H229.92z"/>
	<path class="st2" d="M225.29,113.15c-0.01,0-0.03,0-0.04,0c-0.55-0.02-0.98-0.49-0.96-1.04c0.39-9.49-5.68-14.67-5.75-14.73
		c-0.42-0.35-0.48-0.98-0.13-1.41c0.35-0.42,0.98-0.48,1.41-0.13c0.28,0.23,6.89,5.83,6.47,16.35
		C226.26,112.73,225.82,113.15,225.29,113.15z"/>
	<path class="st4" d="M286.99,366.41c0,0,10.59-17.81,29.63-9.4c19.04,8.42,25.26-61.58,25.26-61.58l-72.84-2.99
		c0,0-15.24,3.77-17.24,16.34C249.82,321.35,286.99,366.41,286.99,366.41z"/>
	<path class="st0" d="M295.51,515.6l33.16-53.56l-30.86-19.1l-19.08,30.82l10.5,6.5C275.51,503.46,295.51,515.6,295.51,515.6"/>
	<path class="st2" d="M281.75,496.85c-0.33,0-0.65-0.16-0.84-0.46c-0.3-0.47-0.16-1.08,0.31-1.38c0.34-0.22,8.54-5.35,17.27-3.95
		c0.55,0.09,0.92,0.6,0.83,1.15c-0.09,0.54-0.6,0.92-1.15,0.83c-7.99-1.29-15.81,3.61-15.88,3.66
		C282.12,496.8,281.93,496.85,281.75,496.85z"/>
	<path class="st4" d="M298.46,462.6l18.16-18.55l-35.04-34.31c-10.43-10.22-10.61-26.96-0.4-37.39l14.15-14.45l-38.44-37.63
		l-26.4,26.97c-24.74,25.27-24.31,65.81,0.96,90.55l46.56,45.59L298.46,462.6z"/>
	<path class="st0" d="M379.05,494.62l-54.23-32.05l18.46-31.24l31.2,18.44l-6.28,10.64C391.13,474.58,379.05,494.62,379.05,494.62"
		/>
	<path class="st2" d="M365.63,476.07c-0.3,0-0.61-0.14-0.8-0.4c-0.33-0.44-0.24-1.07,0.2-1.4c7.08-5.3,16.72-4.56,17.13-4.52
		c0.55,0.05,0.96,0.53,0.91,1.08c-0.04,0.55-0.52,0.97-1.08,0.91c-0.09,0-9.3-0.7-15.77,4.13
		C366.05,476,365.84,476.07,365.63,476.07z"/>
	<path class="st4" d="M353.39,447.7l-24.77-7.79l14.71-46.79c4.38-13.93-3.36-28.77-17.29-33.15l-19.29-6.06l16.13-51.32l36,11.32
		c33.74,10.61,52.49,46.55,41.88,80.29l-19.54,62.16L353.39,447.7z"/>
	<path class="st2" d="M348.17,379.3c-0.05,0-0.11,0-0.16-0.01c-0.54-0.09-0.92-0.6-0.83-1.14c0.04-0.22,3.77-22.21,25.96-24.61
		c0.54-0.06,1.04,0.34,1.1,0.89c0.06,0.55-0.34,1.04-0.89,1.1c-20.65,2.24-24.07,22.09-24.2,22.94
		C349.08,378.95,348.65,379.3,348.17,379.3z"/>
	<path class="st2" d="M270.39,399.87c-0.3,0-0.6-0.14-0.8-0.4c-0.52-0.68-12.91-16.58-32.16-8.8c-0.51,0.21-1.09-0.04-1.3-0.55
		c-0.21-0.51,0.04-1.09,0.55-1.3c20.7-8.35,34.37,9.27,34.5,9.45c0.33,0.44,0.25,1.07-0.19,1.4
		C270.82,399.8,270.61,399.87,270.39,399.87z"/>
	<path class="st3" d="M335.75,154.68c0.13,2.77-0.17,5.47-0.85,8.03c-0.31,1.17-0.69,2.3-1.15,3.39
		c-3.82,9.18-12.66,15.8-23.26,16.29c-12.54,0.59-23.44-7.61-26.74-19.18c-0.16-0.53-0.28-1.05-0.41-1.59
		c-0.33-1.44-0.52-2.94-0.59-4.46c-0.02-0.46-0.03-0.92-0.03-1.38c0.01-1.41,0.12-2.81,0.34-4.17c1.14-6.94,5-13.01,10.49-17.03
		c4.07-3.01,9.04-4.87,14.47-5.12c3.44-0.16,6.76,0.34,9.82,1.39c0.51,0.17,1.02,0.35,1.5,0.57c1.23,0.51,2.42,1.1,3.55,1.78
		c6.98,4.17,11.91,11.49,12.74,20.09c0.01,0.03,0.01,0.06,0.01,0.09C335.7,153.82,335.73,154.24,335.75,154.68z"/>
	<path class="st2" d="M313.22,169.92c-1.5,0-2.82-0.72-3.54-1.35c-0.42-0.36-0.46-0.99-0.1-1.41c0.36-0.42,0.99-0.46,1.41-0.1
		c0.24,0.2,2.34,1.87,4.3-0.1c0.39-0.39,1.02-0.39,1.41,0c0.39,0.39,0.39,1.02,0,1.41C315.57,169.51,314.35,169.92,313.22,169.92z"
		/>
	<path class="st0" d="M250.9,137.33c-25.6,11.35-25.6,11.35-47.2,18.85c1.25,40.62,7.26,71.55,58.68,101.24l27.17-66.08
		C255.01,189.88,252.94,153.13,250.9,137.33z"/>
	<path class="st0" d="M382.62,158.8c16.58,10.42,25.37,12.97,48.5,24.19c-15.47,48.64-49.03,75.72-95.94,86.72l-5.8-71.21
		C362.73,207.62,375.87,173.24,382.62,158.8z"/>
	<path class="st0" d="M252.41,232.31c4.27-27.45,29.99-46.24,57.44-41.96h0c27.45,4.27,46.24,29.99,41.96,57.44l-1.73,64.67
		l-100.45,15.22L252.41,232.31"/>
	<path class="st2" d="M253,237.93c-0.07,0-0.13-0.01-0.2-0.02c-0.54-0.11-0.89-0.64-0.78-1.18c1.2-5.98,3.56-15.35,8.05-26.06
		c0.21-0.51,0.8-0.75,1.31-0.54c0.51,0.21,0.75,0.8,0.54,1.31c-4.43,10.56-6.76,19.79-7.94,25.68
		C253.89,237.6,253.47,237.93,253,237.93z"/>
	<path class="st2" d="M351.46,255.54c-0.02,0-0.05,0-0.07,0c-0.55-0.04-0.97-0.52-0.93-1.07c1.37-19.77-4.11-32.82-4.17-32.95
		c-0.22-0.51,0.02-1.1,0.52-1.31c0.51-0.22,1.1,0.02,1.31,0.52c0.23,0.55,5.73,13.63,4.33,33.88
		C352.42,255.13,351.98,255.54,351.46,255.54z"/>
	<path class="st5" d="M278.13,145.92c-1.85-2.13-3.77-4.4-4.46-7.39c-0.69-2.99,0.35-6.89,2.86-7.94c0.94-0.39,2-0.37,2.83-1.05
		c1.01-0.84,1.31-2.42,1.78-3.77c1.3-3.73,4.43-6.33,7.7-7.24c3.27-0.92,6.67-0.36,9.83,0.71c1.72,0.58,3.48,1.33,5.29,1.01
		c1.52-0.27,2.89-1.28,4.29-2.08c4.9-2.83,10.45-3.38,15.77-2.92c4.56,0.39,9.29,1.64,12.52,5.36c3.23,3.72,4.3,10.53,1.25,14.78
		c3.84,1.29,8.48,3.84,8.25,8.67c-0.19,3.86-3.64,6.55-6.85,7.18c3.57,2.64,2.86,9.75-0.37,13.27c-3.23,3.52-3.25,4.84-7.53,5.03
		c1.72-7.9,1.85-16.21,0.38-24.02c-9.91,2.18-24.73,1.03-34.21-2.31c-1.93-0.68-4.25-1.38-5.84,0.22c-0.74,0.75-1.15,1.87-1.47,2.96
		c-1.78,6.06,0.6,16.2-6.56,15.9C274.32,161.9,280,148.07,278.13,145.92z"/>
</g>
</svg>
